<svg version="1.2" xmlns="http://www.w3.org/2000/svg" viewBox="0 0 631 677" width="631" height="677">
	<title>Novo Projeto</title>
	<style>
		.s0 { fill: none;stroke: #4878ff;stroke-width: 25 } 
		.s1 { fill: none;stroke: #4878ff;stroke-width: 20 } 
	</style>
	<path id="Forma 1" class="s0" d="m316.5 617c-166.2 0-300.5-134.3-300.5-300.5 0-166.2 134.3-300.5 300.5-300.5 166.2 0 300.5 134.3 300.5 300.5 0 166.2-134.3 300.5-300.5 300.5z"/>
	<path id="Forma 2" class="s0" d="m317 612.5v-5 5z"/>
	<path id="Forma 3" class="s1" d="m253.7 608.8l-1.5-2.6 62.7-37.3 1.6 2.5z"/>
	<path id="Forma 3 copy" class="s1" d="m305.8 659.8l-2.3 2-48.1-54.9 2.3-2z"/>
	<path id="Forma 4" class="s1" d="m322 317.4h-5v-183.2h5z"/>
	<path id="Forma 5" class="s1" d="m321.2 328.5l4.3-4.3 121.5 121.5-4.3 4.3z"/>
</svg>